{"title":"Masada(1981)MPEG-4{DaScubaDude]S01E01","uid":15364924,"size":956644734,"categoryP":"video","categoryS":"movies","magnet":"?xt=urn:btih:1ea00d8d094a5c1af7897a55f1d7eefec5b52a93&amp;dn=Masada%281981%29MPEG-4%7BDaScubaDude%5DS01E01&amp;tr=udp%3A%2F%2Ftracker.leechers-paradise.org%3A6969&amp;tr=udp%3A%2F%2Fzer0day.ch%3A1337&amp;tr=udp%3A%2F%2Fopen.demonii.com%3A1337&amp;tr=udp%3A%2F%2Ftracker.coppersurfer.tk%3A6969&amp;tr=udp%3A%2F%2Fexodus.desync.com%3A6969","seeders":1,"leechers":0,"uploader":"dascuba","files":1,"time":1469058639,"description":"Masada \r\n6h 34min | Action, Drama, History | TV Mini-Series (1981– )\r\nAfter the destruction of the Second Temple, 900 Jewish zealots hold out against a 5000 man Roman legion on the mountaintop fortress of Masada.\r\nStars: Peter O'Toole, Peter Strauss, Barbara Carrera |\r\n\r\nGeneral\r\nComplete name                            : MasadaS01E01Masada Disc 1_Title1.mp4\r\nFormat                                   : MPEG-4\r\nFormat profile                           : Base Media\r\nCodec ID                                 : isom (isom/iso2/avc1/mp41)\r\nFile size                                : 912 MiB\r\nDuration                                 : 1h 35mn\r\nOverall bit rate mode                    : Variable\r\nOverall bit rate                         : 1 337 Kbps\r\nMovie name                               : Masada_Disc_1\r\nGenre                                    : Historical_Film\r\nWriting application                      : Lavf54.6.100\r\n\r\nVideo\r\nID                                       : 1\r\nFormat                                   : AVC\r\nFormat/Info                              : Advanced Video Codec\r\nFormat profile                           :   \r\nFormat settings, CABAC                   : No\r\nFormat settings, ReFrames                : 6 frames\r\nCodec ID                                 : avc1\r\nCodec ID/Info                            : Advanced Video Coding\r\nDuration                                 : 1h 35mn\r\nBit rate                                 : 1 203 Kbps\r\nWidth                                    : 720 pixels\r\nHeight                                   : 540 pixels\r\nDisplay aspect ratio                     : 4:3\r\nFrame rate mode                          : Constant\r\nFrame rate                               : 29.970 (30000/1001) fps\r\nColor space                              : YUV\r\nChroma subsampling                       : 4:2:0\r\nBit depth                                : 8 bits\r\nScan type                                : Progressive\r\nBits/(Pixel*Frame)                       : 0.103\r\nStream size                              : 820 MiB (90%)\r\n\r\nAudio\r\nID                                       : 2\r\nFormat                                   : AAC\r\nFormat/Info                              : Advanced Audio Codec\r\nFormat profile                           : LC\r\nCodec ID                                 : 40\r\nDuration                                 : 1h 35mn\r\nBit rate mode                            : Variable\r\nBit rate                                 : 128 Kbps\r\nMaximum bit rate                         : 141 Kbps\r\nChannel(s)                               : 2 channels\r\nChannel positions                        : Front: L R\r\nSampling rate                            : 44.1 KHz\r\nFrame rate                               : 43.066 fps (1024 spf)\r\nCompression mode                         : Lossy\r\nStream size                              : 87.3 MiB (10%)\r\nDefault                                  : Yes\r\nAlternate group                          : 1","torrent":{"xt":"urn:btih:1ea00d8d094a5c1af7897a55f1d7eefec5b52a93","amp;dn":"Masada%281981%29MPEG-4%7BDaScubaDude%5DS01E01","amp;tr":["udp%3A%2F%2Ftracker.leechers-paradise.org%3A6969","udp%3A%2F%2Fzer0day.ch%3A1337","udp%3A%2F%2Fopen.demonii.com%3A1337","udp%3A%2F%2Ftracker.coppersurfer.tk%3A6969","udp%3A%2F%2Fexodus.desync.com%3A6969"],"infoHash":"1ea00d8d094a5c1af7897a55f1d7eefec5b52a93","infoHashBuffer":{"type":"Buffer","data":[30,160,13,141,9,74,92,26,247,137,122,85,241,215,238,254,197,181,42,147]},"announce":[],"urlList":[]}}